solid OpenSCAD_Model
  facet normal -1 0 0
    outer loop
      vertex -1.5 30.7829 12.9218
      vertex -1.5 40.6828 55.7075
      vertex -1.5 42.0154 54.8422
    endloop
  endfacet
  facet normal -1 0 0
    outer loop
      vertex -1.5 12.2988 12
      vertex -1.5 30.7829 12.9218
      vertex -1.5 30.1843 12
    endloop
  endfacet
  facet normal -1 -0 0
    outer loop
      vertex -1.5 30.7829 12.9218
      vertex -1.5 12.2988 12
      vertex -1.5 40.6828 55.7075
    endloop
  endfacet
  facet normal -0 0.544639 0.838671
    outer loop
      vertex -1.5 42.0154 54.8422
      vertex 1.5 40.6828 55.7075
      vertex 1.5 42.0154 54.8422
    endloop
  endfacet
  facet normal 0 0.544639 0.838671
    outer loop
      vertex 1.5 40.6828 55.7075
      vertex -1.5 42.0154 54.8422
      vertex -1.5 40.6828 55.7075
    endloop
  endfacet
  facet normal 1 0 0
    outer loop
      vertex 1.5 40.6828 55.7075
      vertex 1.5 30.7829 12.9218
      vertex 1.5 42.0154 54.8422
    endloop
  endfacet
  facet normal 1 0 0
    outer loop
      vertex 1.5 12.2988 12
      vertex 1.5 30.7829 12.9218
      vertex 1.5 40.6828 55.7075
    endloop
  endfacet
  facet normal 1 0 0
    outer loop
      vertex 1.5 30.7829 12.9218
      vertex 1.5 12.2988 12
      vertex 1.5 30.1843 12
    endloop
  endfacet
  facet normal 0 -0.838671 0.544639
    outer loop
      vertex -1.5 12.2988 12
      vertex 1.5 40.6828 55.7075
      vertex -1.5 40.6828 55.7075
    endloop
  endfacet
  facet normal 0 -0.838671 0.544639
    outer loop
      vertex 1.5 40.6828 55.7075
      vertex -1.5 12.2988 12
      vertex 1.5 12.2988 12
    endloop
  endfacet
  facet normal 0 0.838671 -0.544639
    outer loop
      vertex 1.5 30.1843 12
      vertex -1.5 30.7829 12.9218
      vertex 1.5 30.7829 12.9218
    endloop
  endfacet
  facet normal 0 0.838671 -0.544639
    outer loop
      vertex -1.5 30.7829 12.9218
      vertex 1.5 30.1843 12
      vertex -1.5 30.1843 12
    endloop
  endfacet
  facet normal 0 0.965926 -0.258819
    outer loop
      vertex 1.5 30.7829 12.9218
      vertex -1.5 42.0154 54.8422
      vertex 1.5 42.0154 54.8422
    endloop
  endfacet
  facet normal 0 0.965926 -0.258819
    outer loop
      vertex -1.5 42.0154 54.8422
      vertex 1.5 30.7829 12.9218
      vertex -1.5 30.7829 12.9218
    endloop
  endfacet
  facet normal -1 0 0
    outer loop
      vertex -7.5 2 10.4
      vertex -7.5 3.5 0
      vertex -7.5 2 0
    endloop
  endfacet
  facet normal -1 0 0
    outer loop
      vertex -7.5 3.5 0
      vertex -7.5 2 10.4
      vertex -7.5 3.5 12
    endloop
  endfacet
  facet normal -1 0 0
    outer loop
      vertex -7.5 2 10.4
      vertex -7.5 -1.58908 12
      vertex -7.5 3.5 12
    endloop
  endfacet
  facet normal -1 0 -0
    outer loop
      vertex -7.5 -1.58908 12
      vertex -7.5 2 10.4
      vertex -7.5 -2 10.4
    endloop
  endfacet
  facet normal -1 0 0
    outer loop
      vertex -7.5 -1.58908 12
      vertex -7.5 -2.60586 17.9778
      vertex -7.5 0.213219 16.9518
    endloop
  endfacet
  facet normal -1 0 0
    outer loop
      vertex -7.5 -4.5 12.7737
      vertex -7.5 -1.58908 12
      vertex -7.5 -2 10.4
    endloop
  endfacet
  facet normal -1 0 0
    outer loop
      vertex -7.5 -4.5 0
      vertex -7.5 -2 10.4
      vertex -7.5 -2 0
    endloop
  endfacet
  facet normal -1 -0 0
    outer loop
      vertex -7.5 -2 10.4
      vertex -7.5 -4.5 0
      vertex -7.5 -4.5 12.7737
    endloop
  endfacet
  facet normal -1 0 0
    outer loop
      vertex -7.5 -1.58908 12
      vertex -7.5 -4.5 12.7737
      vertex -7.5 -2.60586 17.9778
    endloop
  endfacet
  facet normal 0 0 1
    outer loop
      vertex 1.5 12.2988 12
      vertex 3.75 30.5 12
      vertex 1.5 30.1843 12
    endloop
  endfacet
  facet normal 0 0 1
    outer loop
      vertex 3.75 30.5 12
      vertex -1.5 30.1843 12
      vertex 1.5 30.1843 12
    endloop
  endfacet
  facet normal 0 0 1
    outer loop
      vertex -1.5 30.1843 12
      vertex -3.75 30.5 12
      vertex -1.5 12.2988 12
    endloop
  endfacet
  facet normal -0 0 1
    outer loop
      vertex -3.75 30.5 12
      vertex -1.5 30.1843 12
      vertex 3.75 30.5 12
    endloop
  endfacet
  facet normal -0 0 1
    outer loop
      vertex 3.75 3.5 12
      vertex 7.5 -1.58908 12
      vertex 7.5 3.5 12
    endloop
  endfacet
  facet normal 0 0 1
    outer loop
      vertex 3.75 30.5 12
      vertex 1.5 12.2988 12
      vertex 3.75 3.5 12
    endloop
  endfacet
  facet normal -0 0 1
    outer loop
      vertex -1.5 12.2988 12
      vertex 3.75 3.5 12
      vertex 1.5 12.2988 12
    endloop
  endfacet
  facet normal 0 0 1
    outer loop
      vertex -3.75 3.5 12
      vertex -1.5 12.2988 12
      vertex -3.75 30.5 12
    endloop
  endfacet
  facet normal 0 0 1
    outer loop
      vertex -3.75 3.5 12
      vertex 3.75 3.5 12
      vertex -1.5 12.2988 12
    endloop
  endfacet
  facet normal -0 0 1
    outer loop
      vertex -3.75 3.5 12
      vertex 7.5 -1.58908 12
      vertex 3.75 3.5 12
    endloop
  endfacet
  facet normal 0 0 1
    outer loop
      vertex -7.5 -1.58908 12
      vertex -3.75 3.5 12
      vertex -7.5 3.5 12
    endloop
  endfacet
  facet normal 0 0 1
    outer loop
      vertex -3.75 3.5 12
      vertex -7.5 -1.58908 12
      vertex 7.5 -1.58908 12
    endloop
  endfacet
  facet normal 1 0 0
    outer loop
      vertex 7.5 -2.60586 17.9778
      vertex 7.5 -1.58908 12
      vertex 7.5 0.213219 16.9518
    endloop
  endfacet
  facet normal 1 -0 0
    outer loop
      vertex 7.5 -4.5 12.7737
      vertex 7.5 -1.58908 12
      vertex 7.5 -2.60586 17.9778
    endloop
  endfacet
  facet normal 1 0 0
    outer loop
      vertex 7.5 -1.58908 12
      vertex 7.5 -4.5 12.7737
      vertex 7.5 -2 10.4
    endloop
  endfacet
  facet normal 1 0 0
    outer loop
      vertex 7.5 -4.5 0
      vertex 7.5 -2 10.4
      vertex 7.5 -4.5 12.7737
    endloop
  endfacet
  facet normal 1 0 0
    outer loop
      vertex 7.5 -2 10.4
      vertex 7.5 -4.5 0
      vertex 7.5 -2 0
    endloop
  endfacet
  facet normal 1 0 0
    outer loop
      vertex 7.5 3.5 12
      vertex 7.5 2 10.4
      vertex 7.5 3.5 0
    endloop
  endfacet
  facet normal 1 -0 0
    outer loop
      vertex 7.5 -1.58908 12
      vertex 7.5 2 10.4
      vertex 7.5 3.5 12
    endloop
  endfacet
  facet normal 1 0 0
    outer loop
      vertex 7.5 2 10.4
      vertex 7.5 -1.58908 12
      vertex 7.5 -2 10.4
    endloop
  endfacet
  facet normal 1 0 0
    outer loop
      vertex 7.5 3.5 0
      vertex 7.5 2 10.4
      vertex 7.5 2 0
    endloop
  endfacet
  facet normal 0 1 0
    outer loop
      vertex 3.75 30.5 12
      vertex 1.75 30.5 10.4
      vertex -3.75 30.5 12
    endloop
  endfacet
  facet normal 0 1 -0
    outer loop
      vertex 3.75 30.5 0
      vertex 1.75 30.5 10.4
      vertex 3.75 30.5 12
    endloop
  endfacet
  facet normal 0 1 0
    outer loop
      vertex 1.75 30.5 10.4
      vertex 3.75 30.5 0
      vertex 1.75 30.5 0
    endloop
  endfacet
  facet normal 0 1 -0
    outer loop
      vertex -1.75 30.5 10.4
      vertex -3.75 30.5 12
      vertex 1.75 30.5 10.4
    endloop
  endfacet
  facet normal 0 1 0
    outer loop
      vertex -3.75 30.5 0
      vertex -1.75 30.5 10.4
      vertex -1.75 30.5 0
    endloop
  endfacet
  facet normal 0 1 0
    outer loop
      vertex -1.75 30.5 10.4
      vertex -3.75 30.5 0
      vertex -3.75 30.5 12
    endloop
  endfacet
  facet normal 0 0 -1
    outer loop
      vertex -7.5 -4.5 0
      vertex -1.75 -2 0
      vertex -1.75 -4.5 0
    endloop
  endfacet
  facet normal -0 0 -1
    outer loop
      vertex -1.75 -2 0
      vertex -7.5 -4.5 0
      vertex -7.5 -2 0
    endloop
  endfacet
  facet normal 0 0 -1
    outer loop
      vertex -7.5 2 0
      vertex -3.75 3.5 0
      vertex -1.75 2 0
    endloop
  endfacet
  facet normal -0 0 -1
    outer loop
      vertex -3.75 3.5 0
      vertex -7.5 2 0
      vertex -7.5 3.5 0
    endloop
  endfacet
  facet normal 0 0 -1
    outer loop
      vertex -3.75 3.5 0
      vertex -1.75 30.5 0
      vertex -1.75 2 0
    endloop
  endfacet
  facet normal -0 0 -1
    outer loop
      vertex -1.75 30.5 0
      vertex -3.75 3.5 0
      vertex -3.75 30.5 0
    endloop
  endfacet
  facet normal 0 0 -1
    outer loop
      vertex 7.5 2 0
      vertex 3.75 3.5 0
      vertex 7.5 3.5 0
    endloop
  endfacet
  facet normal 0 0 -1
    outer loop
      vertex 3.75 3.5 0
      vertex 1.75 30.5 0
      vertex 3.75 30.5 0
    endloop
  endfacet
  facet normal -0 0 -1
    outer loop
      vertex 3.75 3.5 0
      vertex 1.75 2 0
      vertex 1.75 30.5 0
    endloop
  endfacet
  facet normal 0 0 -1
    outer loop
      vertex 1.75 2 0
      vertex 3.75 3.5 0
      vertex 7.5 2 0
    endloop
  endfacet
  facet normal 0 0 -1
    outer loop
      vertex 1.75 -4.5 0
      vertex 7.5 -2 0
      vertex 7.5 -4.5 0
    endloop
  endfacet
  facet normal -0 0 -1
    outer loop
      vertex 7.5 -2 0
      vertex 1.75 -4.5 0
      vertex 1.75 -2 0
    endloop
  endfacet
  facet normal -0 0.342021 0.939692
    outer loop
      vertex -7.5 0.213219 16.9518
      vertex 7.5 -2.60586 17.9778
      vertex 7.5 0.213219 16.9518
    endloop
  endfacet
  facet normal 0 0.342021 0.939692
    outer loop
      vertex 7.5 -2.60586 17.9778
      vertex -7.5 0.213219 16.9518
      vertex -7.5 -2.60586 17.9778
    endloop
  endfacet
  facet normal 0 0.939693 -0.34202
    outer loop
      vertex 7.5 -1.58908 12
      vertex -7.5 0.213219 16.9518
      vertex 7.5 0.213219 16.9518
    endloop
  endfacet
  facet normal 0 0.939693 -0.34202
    outer loop
      vertex -7.5 0.213219 16.9518
      vertex 7.5 -1.58908 12
      vertex -7.5 -1.58908 12
    endloop
  endfacet
  facet normal 0 -0.939693 0.34202
    outer loop
      vertex -7.5 -4.5 12.7737
      vertex 7.5 -2.60586 17.9778
      vertex -7.5 -2.60586 17.9778
    endloop
  endfacet
  facet normal 0 -0.939693 0.34202
    outer loop
      vertex 7.5 -2.60586 17.9778
      vertex -7.5 -4.5 12.7737
      vertex 7.5 -4.5 12.7737
    endloop
  endfacet
  facet normal 0 0 -1
    outer loop
      vertex 7.5 -2 10.4
      vertex 1.75 2 10.4
      vertex 7.5 2 10.4
    endloop
  endfacet
  facet normal 0 -0 -1
    outer loop
      vertex 1.75 2 10.4
      vertex 7.5 -2 10.4
      vertex 1.75 -2 10.4
    endloop
  endfacet
  facet normal 0 0 -1
    outer loop
      vertex -1.75 2 10.4
      vertex 1.75 2 10.4
      vertex 1.75 -2 10.4
    endloop
  endfacet
  facet normal 0 0 -1
    outer loop
      vertex 1.75 2 10.4
      vertex -1.75 2 10.4
      vertex 1.75 30.5 10.4
    endloop
  endfacet
  facet normal 0 0 -1
    outer loop
      vertex -1.75 -2 10.4
      vertex 1.75 -2 10.4
      vertex 1.75 -4.5 10.4
    endloop
  endfacet
  facet normal -0 0 -1
    outer loop
      vertex 1.75 30.5 10.4
      vertex -1.75 2 10.4
      vertex -1.75 30.5 10.4
    endloop
  endfacet
  facet normal 0 0 -1
    outer loop
      vertex -1.75 -2 10.4
      vertex 1.75 -4.5 10.4
      vertex -1.75 -4.5 10.4
    endloop
  endfacet
  facet normal 0 0 -1
    outer loop
      vertex 1.75 -2 10.4
      vertex -1.75 -2 10.4
      vertex -1.75 2 10.4
    endloop
  endfacet
  facet normal 0 0 -1
    outer loop
      vertex -7.5 -2 10.4
      vertex -1.75 2 10.4
      vertex -1.75 -2 10.4
    endloop
  endfacet
  facet normal -0 0 -1
    outer loop
      vertex -1.75 2 10.4
      vertex -7.5 -2 10.4
      vertex -7.5 2 10.4
    endloop
  endfacet
  facet normal 0 1 -0
    outer loop
      vertex -1.75 -2 0
      vertex -7.5 -2 10.4
      vertex -1.75 -2 10.4
    endloop
  endfacet
  facet normal 0 1 0
    outer loop
      vertex -7.5 -2 10.4
      vertex -1.75 -2 0
      vertex -7.5 -2 0
    endloop
  endfacet
  facet normal 0 1 -0
    outer loop
      vertex 7.5 -2 0
      vertex 1.75 -2 10.4
      vertex 7.5 -2 10.4
    endloop
  endfacet
  facet normal 0 1 0
    outer loop
      vertex 1.75 -2 10.4
      vertex 7.5 -2 0
      vertex 1.75 -2 0
    endloop
  endfacet
  facet normal 0 -1 0
    outer loop
      vertex -7.5 2 0
      vertex -1.75 2 10.4
      vertex -7.5 2 10.4
    endloop
  endfacet
  facet normal 0 -1 -0
    outer loop
      vertex -1.75 2 10.4
      vertex -7.5 2 0
      vertex -1.75 2 0
    endloop
  endfacet
  facet normal 0 -1 0
    outer loop
      vertex 1.75 2 0
      vertex 7.5 2 10.4
      vertex 1.75 2 10.4
    endloop
  endfacet
  facet normal 0 -1 -0
    outer loop
      vertex 7.5 2 10.4
      vertex 1.75 2 0
      vertex 7.5 2 0
    endloop
  endfacet
  facet normal 1 -0 0
    outer loop
      vertex -1.75 -4.5 10.4
      vertex -1.75 -2 0
      vertex -1.75 -2 10.4
    endloop
  endfacet
  facet normal 1 0 0
    outer loop
      vertex -1.75 -2 0
      vertex -1.75 -4.5 10.4
      vertex -1.75 -4.5 0
    endloop
  endfacet
  facet normal 1 -1.67311e-08 0
    outer loop
      vertex -1.75 2 10.4
      vertex -1.75 30.5 0
      vertex -1.75 30.5 10.4
    endloop
  endfacet
  facet normal 1 -1.67311e-08 0
    outer loop
      vertex -1.75 30.5 0
      vertex -1.75 2 10.4
      vertex -1.75 2 0
    endloop
  endfacet
  facet normal -1 0 0
    outer loop
      vertex 1.75 -4.5 0
      vertex 1.75 -2 10.4
      vertex 1.75 -2 0
    endloop
  endfacet
  facet normal -1 -0 0
    outer loop
      vertex 1.75 -2 10.4
      vertex 1.75 -4.5 0
      vertex 1.75 -4.5 10.4
    endloop
  endfacet
  facet normal -1 1.67311e-08 0
    outer loop
      vertex 1.75 2 0
      vertex 1.75 30.5 10.4
      vertex 1.75 30.5 0
    endloop
  endfacet
  facet normal -1 1.67311e-08 0
    outer loop
      vertex 1.75 30.5 10.4
      vertex 1.75 2 0
      vertex 1.75 2 10.4
    endloop
  endfacet
  facet normal 1 -0 0
    outer loop
      vertex 3.75 3.5 12
      vertex 3.75 30.5 0
      vertex 3.75 30.5 12
    endloop
  endfacet
  facet normal 1 0 0
    outer loop
      vertex 3.75 30.5 0
      vertex 3.75 3.5 12
      vertex 3.75 3.5 0
    endloop
  endfacet
  facet normal 0 1 -0
    outer loop
      vertex 7.5 3.5 0
      vertex 3.75 3.5 12
      vertex 7.5 3.5 12
    endloop
  endfacet
  facet normal 0 1 0
    outer loop
      vertex 3.75 3.5 12
      vertex 7.5 3.5 0
      vertex 3.75 3.5 0
    endloop
  endfacet
  facet normal -1 0 0
    outer loop
      vertex -3.75 3.5 0
      vertex -3.75 30.5 12
      vertex -3.75 30.5 0
    endloop
  endfacet
  facet normal -1 -0 0
    outer loop
      vertex -3.75 30.5 12
      vertex -3.75 3.5 0
      vertex -3.75 3.5 12
    endloop
  endfacet
  facet normal 0 1 -0
    outer loop
      vertex -3.75 3.5 0
      vertex -7.5 3.5 12
      vertex -3.75 3.5 12
    endloop
  endfacet
  facet normal 0 1 0
    outer loop
      vertex -7.5 3.5 12
      vertex -3.75 3.5 0
      vertex -7.5 3.5 0
    endloop
  endfacet
  facet normal 0 -1 0
    outer loop
      vertex -7.5 -4.5 12.7737
      vertex -1.75 -4.5 10.4
      vertex 7.5 -4.5 12.7737
    endloop
  endfacet
  facet normal 0 -1 0
    outer loop
      vertex -7.5 -4.5 0
      vertex -1.75 -4.5 10.4
      vertex -7.5 -4.5 12.7737
    endloop
  endfacet
  facet normal 0 -1 -0
    outer loop
      vertex -1.75 -4.5 10.4
      vertex -7.5 -4.5 0
      vertex -1.75 -4.5 0
    endloop
  endfacet
  facet normal 0 -1 0
    outer loop
      vertex 1.75 -4.5 10.4
      vertex 7.5 -4.5 12.7737
      vertex -1.75 -4.5 10.4
    endloop
  endfacet
  facet normal 0 -1 0
    outer loop
      vertex 7.5 -4.5 0
      vertex 1.75 -4.5 10.4
      vertex 1.75 -4.5 0
    endloop
  endfacet
  facet normal 0 -1 0
    outer loop
      vertex 1.75 -4.5 10.4
      vertex 7.5 -4.5 0
      vertex 7.5 -4.5 12.7737
    endloop
  endfacet
endsolid OpenSCAD_Model
